
<svg width="176" height="175" viewBox="0 0 76 75" fill="none" xmlns="http://www.w3.org/2000/svg">
<path d="M65.5 37.5C65.5 52.4032 53.1964 64.5 38 64.5C22.8036 64.5 10.5 52.4032 10.5 37.5C10.5 22.5968 22.8036 10.5 38 10.5C53.1964 10.5 65.5 22.5968 65.5 37.5Z" fill="black" stroke="black"/>
<path d="M34.6936 11.0479C35.7824 7.91177 40.2176 7.91177 41.3064 11.0479L43.1796 16.4434C44.0624 18.986 46.965 20.1902 49.3885 19.0192L54.5749 16.5133C57.5769 15.0627 60.7148 18.2335 59.2329 21.2203L56.7894 26.1451C55.5782 28.5863 56.7976 31.5353 59.3791 32.4081L64.6327 34.1844C67.8046 35.2569 67.8046 39.7431 64.6327 40.8156L59.3791 42.5919C56.7976 43.4647 55.5782 46.4137 56.7894 48.8549L59.2329 53.7797C60.7148 56.7665 57.5769 59.9373 54.5749 58.4867L49.3885 55.9808C46.965 54.8098 44.0624 56.014 43.1796 58.5566L41.3064 63.9521C40.2176 67.0882 35.7824 67.0882 34.6936 63.9521L32.8204 58.5566C31.9376 56.014 29.035 54.8098 26.6115 55.9808L21.4251 58.4867C18.4231 59.9373 15.2852 56.7665 16.7671 53.7797L19.2106 48.8549C20.4218 46.4137 19.2024 43.4647 16.6209 42.5919L11.3673 40.8156C8.19539 39.7431 8.19539 35.2569 11.3673 34.1844L16.6209 32.4081C19.2024 31.5353 20.4218 28.5863 19.2106 26.1451L16.7671 21.2203C15.2852 18.2335 18.4231 15.0627 21.4251 16.5133L26.6115 19.0192C29.035 20.1902 31.9376 18.986 32.8204 16.4434L34.6936 11.0479Z" fill="white" stroke="black"/>
<mask id="path-3-outside-1_201_5" maskUnits="userSpaceOnUse" x="19" y="25" width="38" height="27" fill="black">
<rect fill="white" x="19" y="25" width="38" height="27"/>
<path d="M25.7305 26.807C26.868 31.5488 27.831 35.6485 28.6194 39.1063C29.4191 42.5527 30.1794 46.0724 30.9002 49.6653H30.9847C32.7755 41.0716 34.5438 33.4522 36.2896 26.807H39.6854C41.4424 33.5198 43.205 41.1392 44.9733 49.6653H45.0747C45.8181 46.0049 46.6008 42.3725 47.423 38.7684C48.2452 35.1529 49.1857 31.1658 50.2444 26.807H54.6877L47.8623 51H42.8784L38.0297 30.9969H37.9452L33.0965 51H28.0957L21.2872 26.807H25.7305Z"/>
</mask>
<path d="M25.7305 26.807C26.868 31.5488 27.831 35.6485 28.6194 39.1063C29.4191 42.5527 30.1794 46.0724 30.9002 49.6653H30.9847C32.7755 41.0716 34.5438 33.4522 36.2896 26.807H39.6854C41.4424 33.5198 43.205 41.1392 44.9733 49.6653H45.0747C45.8181 46.0049 46.6008 42.3725 47.423 38.7684C48.2452 35.1529 49.1857 31.1658 50.2444 26.807H54.6877L47.8623 51H42.8784L38.0297 30.9969H37.9452L33.0965 51H28.0957L21.2872 26.807H25.7305Z" fill="black"/>
<path d="M25.7305 26.807L26.7029 26.5737L26.5189 25.807H25.7305V26.807ZM28.6194 39.1063L27.6444 39.3286L27.6453 39.3323L28.6194 39.1063ZM30.9002 49.6653L29.9197 49.862L30.0809 50.6653H30.9002V49.6653ZM30.9847 49.6653V50.6653H31.7978L31.9636 49.8693L30.9847 49.6653ZM36.2895 26.807V25.807H35.5183L35.3224 26.5529L36.2895 26.807ZM39.6854 26.807L40.6528 26.5538L40.4573 25.807H39.6854V26.807ZM44.9733 49.6653L43.9942 49.8684L44.1595 50.6653H44.9733V49.6653ZM45.0747 49.6653V50.6653H45.892L46.0547 49.8643L45.0747 49.6653ZM47.423 38.7684L48.398 38.9908L48.3981 38.9901L47.423 38.7684ZM50.2444 26.807V25.807H49.4583L49.2727 26.571L50.2444 26.807ZM54.6877 26.807L55.6501 27.0786L56.0089 25.807H54.6877V26.807ZM47.8623 51V52H48.6192L48.8247 51.2715L47.8623 51ZM42.8784 51L41.9066 51.2356L42.0919 52H42.8784V51ZM38.0297 30.9969L39.0015 30.7613L38.8162 29.9969H38.0297V30.9969ZM37.9452 30.9969V29.9969H37.1587L36.9734 30.7613L37.9452 30.9969ZM33.0965 51V52H33.883L34.0683 51.2356L33.0965 51ZM28.0957 51L27.1331 51.2709L27.3383 52H28.0957V51ZM21.2872 26.807V25.807H19.9669L20.3246 27.0779L21.2872 26.807ZM24.7581 27.0403C25.895 31.7796 26.8571 35.8755 27.6445 39.3286L29.5944 38.8839C28.8049 35.4215 27.841 31.3179 26.7029 26.5737L24.7581 27.0403ZM27.6453 39.3323C28.4426 42.7687 29.2008 46.2786 29.9197 49.862L31.8807 49.4686C31.1579 45.8663 30.3956 42.3368 29.5936 38.8802L27.6453 39.3323ZM30.9002 50.6653H30.9847V48.6653H30.9002V50.6653ZM31.9636 49.8693C33.7519 41.2881 35.5163 33.6859 37.2567 27.0611L35.3224 26.5529C33.5712 33.2185 31.7991 40.8552 30.0057 49.4613L31.9636 49.8693ZM36.2895 27.807H39.6854V25.807H36.2895V27.807ZM38.7179 27.0602C40.4697 33.7529 42.2285 41.3551 43.9942 49.8684L45.9525 49.4623C44.1816 40.9234 42.4151 33.2867 40.6528 26.5538L38.7179 27.0602ZM44.9733 50.6653H45.0747V48.6653H44.9733V50.6653ZM46.0547 49.8643C46.7965 46.2116 47.5776 42.5871 48.398 38.9908L46.4481 38.5459C45.6241 42.158 44.8396 45.7981 44.0947 49.4663L46.0547 49.8643ZM48.3981 38.9901C49.2191 35.3803 50.1584 31.398 51.2162 27.0431L49.2727 26.571C48.213 30.9336 47.2714 34.9255 46.4479 38.5466L48.3981 38.9901ZM50.2444 27.807H54.6877V25.807H50.2444V27.807ZM53.7253 26.5355L46.8999 50.7285L48.8247 51.2715L55.6501 27.0786L53.7253 26.5355ZM47.8623 50H42.8784V52H47.8623V50ZM43.8503 50.7644L39.0015 30.7613L37.0578 31.2325L41.9066 51.2356L43.8503 50.7644ZM38.0297 29.9969H37.9452V31.9969H38.0297V29.9969ZM36.9734 30.7613L32.1246 50.7644L34.0683 51.2356L38.9171 31.2325L36.9734 30.7613ZM33.0965 50H28.0957V52H33.0965V50ZM29.0583 50.7291L22.2498 26.5361L20.3246 27.0779L27.1331 51.2709L29.0583 50.7291ZM21.2872 27.807H25.7305V25.807H21.2872V27.807Z" fill="black" mask="url(#path-3-outside-1_201_5)"/>
</svg>
